Coordinates
version=1
nRows=14
nColumns=33
inDegrees=yes

Units are S.I. units (second, meters, Newtons, ...)
Angles are in degrees.

endheader
time	ground_thorax_rot_x	ground_thorax_rot_y	ground_thorax_rot_z	ground_thorax_tx	ground_thorax_ty	ground_thorax_tz	clav_prot_r	clav_elev_r	scapula_abduction_r	scapula_elevation_r	scapula_upward_rot_r	scapula_winging_r	shoulder_elv_r	plane_of_elev_r	axial_rot_r	elbow_flexion_r	pro_sup_r	wrist_flex_r	wrist_dev_r	clav_prot_l	clav_elev_l	scapula_abduction_l	scapula_elevation_l	scapula_upward_rot_l	scapula_winging_l	shoulder_elv_l	plane_of_elev_l	axial_rot_l	elbow_flexion_l	pro_sup_l	wrist_flex_l	wrist_dev_l
     13.06000000	    -38.00286401	     -6.56126269	     12.70519629	    -26.57975089	    797.86921056	    -38.73207070	     10.78537025	    -45.00000000	     45.00000000	    -45.00000000	     22.19868997	  -2278.50697646	  -2620.33194430	    144.51365154	   -179.99999979	   1428.19588187	   -293.96439220	     20.66765490	     15.35902325	      4.59848580	     28.04432591	    -30.50322539	    -45.00000000	    -45.00000000	  -3166.15222540	   -262.94591135	     19.12632912	   -179.99999979	   1797.70059542	    538.17345955	     10.54519262	    -15.97058804
     13.07000000	    -37.99082250	     -6.58428702	     12.64120380	    -28.38071770	    799.21850093	    -38.63576798	     10.85220851	    -45.00000000	     45.00000000	    -45.00000000	     22.30353508	  -2278.48482556	  -2620.19156490	    144.49023210	   -179.99999979	   1428.12757085	   -294.27584663	     20.65628883	     15.44265963	      4.55034032	     28.07737964	    -30.43807399	    -45.00000000	    -45.00000000	  -3165.97710649	   -262.90192509	     19.09924731	   -179.99999979	   1797.64201412	    538.19325620	     10.53102038	    -16.03173340
     13.08000000	    -37.98758464	     -6.59204876	     12.58386716	    -30.11976000	    800.58805861	    -38.54252988	     10.90464240	    -45.00000000	     45.00000000	    -45.00000000	     22.25391199	  -2278.43550704	  -2620.04339031	    144.50681709	   -179.99999979	   1428.11172009	   -294.60353442	     20.71643884	     15.55349494	      4.43235484	     28.11921556	    -30.35455571	    -45.00000000	    -45.00000000	  -3165.84556342	   -262.87061855	     19.10649810	   -179.99999979	   1797.64103315	    538.12930825	     10.50920909	    -16.07940562
     13.09000000	    -38.00835445	     -6.38397734	     12.31470137	    -31.80816528	    801.97976454	    -38.45076882	     10.86407758	    -45.00000000	     45.00000000	    -45.00000000	     22.16255084	  -2278.31750401	  -2620.03960992	    144.55588931	   -179.99999979	   1428.19190367	   -294.95465014	     20.90326723	     15.67103236	      4.32049416	     28.18976939	    -30.24089330	    -45.00000000	    -45.00000000	  -3165.72484857	   -262.66650106	     19.35096418	   -179.99999979	   1797.72383304	    538.02210030	     10.50724857	    -16.09601636
     13.10000000	    -37.97046898	     -6.48953949	     12.38730770	    -33.43771506	    803.37562831	    -38.36036898	     10.81662996	    -45.00000000	     44.90111905	    -45.00000000	     22.17967399	  -2278.30956775	  -2619.81398315	    144.50375634	   -179.99999979	   1428.12135539	   -295.29105992	     20.80402442	     15.70292188	      4.33072549	     28.20618691	    -30.26577907	    -45.00000000	    -45.00000000	  -3165.57988803	   -262.73386665	     19.19640679	   -179.99999979	   1797.61327242	    537.82750049	     10.53237055	    -16.14776516
     13.11000000	    -37.98898121	     -6.50602592	     12.33416844	    -35.02599127	    804.78104089	    -38.27039394	     10.81421869	    -45.00000000	     44.74402378	    -45.00000000	     22.13053281	  -2278.17417590	  -2619.70630360	    144.53136282	   -179.99999979	   1428.08064085	   -295.64258239	     20.88092468	     15.82682528	      4.21929437	     28.24049618	    -30.22525398	    -45.00000000	    -45.00000000	  -3165.43647425	   -262.72115401	     19.16533232	   -179.99999979	   1797.56727681	    537.59268072	     10.52555559	    -16.20352580
     13.12000000	    -37.94475122	     -6.43591997	     12.20705563	    -36.57417593	    806.18629784	    -38.18158350	     10.75179259	    -45.00000000	     44.61044789	    -45.00000000	     22.10368860	  -2278.06500161	  -2619.58507329	    144.49438407	   -179.99999979	   1428.08150724	   -295.99738578	     20.94209520	     15.91577161	      4.14747099	     28.28205791	    -30.26699721	    -45.00000000	    -45.00000000	  -3165.32329598	   -262.63876118	     19.20199866	   -179.99999979	   1797.56810827	    537.32321402	     10.52843778	    -16.23620407
     13.13000000	    -38.00638857	     -6.16691399	     11.92368065	    -38.08376140	    807.58801185	    -38.09463763	     10.67336112	    -45.00000000	     44.45267983	    -45.00000000	     22.15435752	  -2277.95647457	  -2619.53670926	    144.52681492	   -179.99999979	   1428.07371892	   -296.34443402	     21.06038181	     16.02430459	      4.03906269	     28.33741429	    -30.20954665	    -45.00000000	    -45.00000000	  -3165.24112149	   -262.48095644	     19.40397654	   -179.99999979	   1797.59399918	    537.03843779	     10.55198673	    -16.26416778
     13.14000000	    -38.07299448	     -5.96865264	     11.64303144	    -39.55530931	    808.98143499	    -38.01051512	     10.63285986	    -45.00000000	     44.08493784	    -45.00000000	     22.30459270	  -2277.83067541	  -2619.53940653	    144.42698959	   -179.99999979	   1427.97614914	   -296.67396612	     21.25853287	     16.22844707	      4.09321978	     28.38039983	    -30.07413926	    -45.00000000	    -45.00000000	  -3165.15580099	   -262.24963741	     19.63363979	   -179.99999979	   1797.61779029	    536.71146742	     10.58410591	    -16.27579988
     13.15000000	    -38.10738263	     -5.87536721	     11.45405119	    -40.98844610	    810.36883584	    -37.92933867	     10.47200102	    -45.00000000	     44.01647684	    -45.00000000	     22.58076000	  -2277.78110102	  -2619.44197988	    144.47799697	   -179.99999979	   1427.92375948	   -297.01812665	     21.24358061	     16.30371806	      4.03230945	     28.40009861	    -30.21884418	    -45.00000000	    -45.00000000	  -3165.04161675	   -262.34566837	     19.48599666	   -179.99999979	   1797.47911101	    536.29862620	     10.53723093	    -16.37075159
     13.16000000	    -38.16563228	     -5.75010915	     11.21198327	    -42.38730207	    811.75513540	    -37.85124507	     10.40629537	    -45.00000000	     43.87127179	    -45.00000000	     22.71409188	  -2277.72568629	  -2619.41780919	    144.42508786	   -179.99999979	   1427.87839262	   -297.38316358	     21.34416254	     16.43661364	      4.07818394	     28.43411872	    -30.09954521	    -45.00000000	    -45.00000000	  -3164.94588310	   -262.15173873	     19.65582550	   -179.99999979	   1797.49783014	    535.86022160	     10.60624341	    -16.36711660
     13.17000000	    -38.19276738	     -5.66589372	     11.04188244	    -43.74131733	    813.13457836	    -37.77700959	     10.30387552	    -45.00000000	     43.69973876	    -45.00000000	     22.91735026	  -2277.64860745	  -2619.33163393	    144.44148068	   -179.99999979	   1427.81041775	   -297.76184308	     21.36144974	     16.55231320	      3.96787875	     28.46039534	    -30.25447479	    -45.00000000	    -45.00000000	  -3164.84342780	   -262.25393278	     19.51218007	   -179.99999979	   1797.37235050	    535.35382769	     10.54381655	    -16.46947122
     13.18000000	    -38.10786100	     -5.78919573	     11.11166482	    -45.05353663	    814.50857215	    -37.70767850	     10.23697533	    -45.00000000	     43.79269471	    -45.00000000	     23.00950818	  -2277.74401414	  -2619.06228868	    144.38655900	   -179.99999979	   1427.81180529	   -298.19363574	     21.23492382	     16.56599460	      4.01064273	     28.46874625	    -30.25094704	    -45.00000000	    -45.00000000	  -3164.84943789	   -262.33220635	     19.42576046	   -179.99999979	   1797.40201985	    534.78042750	     10.63576051	    -16.41963303
     13.19000000	    -38.13202867	     -5.85341804	     11.04666465	    -46.32736378	    815.88044668	    -37.64439800	     10.21565937	    -45.00000000	     43.66165659	    -45.00000000	     22.96212828	  -2277.63591057	  -2619.00016816	    144.41934055	   -179.99999979	   1427.76013461	   -298.63980374	     21.26606968	     16.69939972	      3.93151450	     28.48651961	    -30.22401492	    -45.00000000	    -45.00000000	  -3164.73076206	   -262.33892929	     19.36965797	   -179.99999979	   1797.31950944	    534.16767828	     10.66321252	    -16.46270318
